<?xml version="1.0" encoding="UTF-8" standalone="no"?>
<!DOCTYPE svg PUBLIC "-//W3C//DTD SVG 1.1//EN" "http://www.w3.org/Graphics/SVG/1.1/DTD/svg11.dtd">
<svg width="100%" height="100%" viewBox="0 0 748 748" version="1.1" xmlns="http://www.w3.org/2000/svg" xmlns:xlink="http://www.w3.org/1999/xlink" xml:space="preserve" xmlns:serif="http://www.serif.com/" style="fill-rule:evenodd;clip-rule:evenodd;stroke-linecap:round;stroke-linejoin:round;stroke-miterlimit:1.5;">
    <g transform="matrix(1,0,0,1,-1594.18,-308.506)">
        <g id="Head">
            <g transform="matrix(0.666887,0,0,0.666887,528.325,42.0767)">
                <circle cx="2158.64" cy="959.896" r="560.385" style="fill:rgb(255,17,0);"/>
            </g>
            <g id="Colors">
                <path d="M1841.28,785.662C1833.4,796.805 1821.94,804.466 1814.75,816.389C1810.74,823.041 1809.22,830.82 1806.96,838.16C1799.29,863.024 1797.99,875.48 1797.86,901.431C1797.8,914.014 1800.53,923.466 1803.99,935.369C1804.76,938.027 1806,945.744 1808.77,947.47C1809.12,947.694 1811.74,942.457 1811.84,942.239C1814.57,936.489 1817.36,930.789 1818.58,924.489C1821.43,909.774 1830.51,897.075 1846.12,894.223C1851.68,893.207 1857.57,892.79 1863.21,893.029C1893.56,894.315 1899.39,908.159 1915.86,931.064C1922.51,940.312 1930.58,948.39 1933.5,959.777" style="fill:rgb(41,135,69);"/>
                <path d="M2029.93,812.838C2043.72,833.975 2076.29,882.555 2079.05,909.43C2079.82,916.984 2080.76,924.868 2079.12,932.372C2076.95,942.256 2068.27,950.812 2062.1,958.559C2059.87,961.353 2057.55,964.132 2054.83,966.462C2053.5,967.6 2051.18,971.818 2051.02,970.075C2049.93,958.392 2055.17,947.947 2051.22,936.101C2046.14,920.835 2023.96,908.824 2008.48,913.518C1998.86,916.436 1989.33,924.872 1981.35,930.898C1967.45,941.392 1953.55,951.826 1939.52,962.049" style="fill:rgb(41,135,69);"/>
                <path id="Skin-Color" serif:id="Skin Color" d="M1816.56,652.355L1844.71,629.965L1895.36,612.422L2039.68,573.01L2098.22,560.56L2112.33,563.3L2117.92,571.895L2123.84,586.451C2123.84,586.451 2125.62,601.569 2124.71,605.392C2124.13,607.826 2119.53,607.18 2118.36,609.393C2117.05,611.883 2117.06,616.656 2116.84,620.33C2116.59,624.556 2115.79,630.058 2116.84,634.747C2118.15,640.604 2120.89,649.147 2124.71,655.471C2129.35,663.141 2139.93,674.396 2144.65,680.763C2147.71,684.885 2151.64,689.944 2153.03,693.674C2154.14,696.63 2153.47,700.299 2153.03,703.142C2152.63,705.787 2152.32,708.854 2150.42,710.731C2148.12,712.993 2142.96,715.162 2139.25,716.71C2135.7,718.194 2130.62,718.533 2128.19,720.02C2126.32,721.172 2125.73,723.683 2124.71,725.634C2123.6,727.756 2121.54,730.15 2121.54,732.747C2121.54,735.391 2124.19,738.441 2124.71,741.5C2125.24,744.588 2126.79,748.76 2124.71,751.272C2122.56,753.88 2114.96,755.821 2111.79,757.151C2109.81,757.983 2104.59,758.229 2105.69,759.25C2106.78,760.271 2115.72,762.086 2118.36,763.277C2119.71,763.887 2121.08,764.982 2121.54,766.394C2122.07,768.043 2122.78,771.283 2121.54,773.167C2119.85,775.726 2113.8,779.314 2111.41,781.748C2109.69,783.498 2107.75,785.829 2107.19,787.776C2106.66,789.604 2107.34,791.648 2108.02,793.426C2108.83,795.527 2111.2,797.839 2112.02,800.382C2113.04,803.529 2114.57,808.29 2114.16,812.306C2113.71,816.622 2112.12,822.215 2109.33,826.279C2106.46,830.466 2101.94,835.019 2096.93,837.428C2090.65,840.445 2080.28,842.854 2071.7,844.375C2061.63,846.158 2043.31,847.497 2036.56,848.121C2034.79,848.286 2032.17,847.173 2031.21,848.121C2030.25,849.069 2031.36,851.991 2030.81,853.809C2029.62,857.706 2027.05,865.926 2024.1,871.502C2020.98,877.389 2016.69,883.684 2012.13,889.129C2007.47,894.689 2001.71,899.864 1996.16,904.864C1988.79,911.502 1975.99,921.798 1967.89,928.953C1960.97,935.067 1952.41,942.788 1947.59,947.793C1944.32,951.186 1941.29,957.118 1938.94,958.983C1937.52,960.112 1934.76,960.287 1933.5,958.983C1931.53,956.958 1929.57,950.717 1927.17,946.837C1923.9,941.569 1918.71,933.588 1913.91,927.377C1907.01,918.459 1895.54,904.366 1885.81,893.327C1875.48,881.612 1859.81,870.728 1851.95,857.087C1844.09,843.445 1840.15,823.383 1838.62,811.479C1837.5,802.836 1842.74,794.23 1842.74,785.662C1842.74,777.093 1840.9,768.063 1838.62,760.067C1836.39,752.262 1831.55,745.399 1829.02,737.685C1826.34,729.492 1824.91,719.779 1822.52,710.911C1819.75,700.632 1814.22,684.648 1812.41,676.011C1811.25,670.486 1810.94,663.033 1811.63,659.09C1812.11,656.35 1816.56,652.355 1816.56,652.355Z" style="fill:rgb(216,181,157);stroke:rgb(230,183,170);stroke-width:0.3px;"/>
                <g transform="matrix(1,0,0,1,6.41128,0.90162)">
                    <path d="M2109.72,640.163C2111.74,645.272 2113.76,650.48 2116.51,655.261C2118.07,657.967 2120.35,660.225 2122.18,662.746C2124.34,665.713 2126.07,668.999 2128.28,671.94C2131.91,676.762 2136.29,681.122 2139.55,686.205C2141.32,688.97 2143.76,691.266 2145.25,694.232C2146.14,696.007 2146.47,697.989 2146.85,699.92C2147.19,701.68 2147.55,703.904 2146.7,705.598C2144.81,709.319 2141.45,709.63 2138.09,711.275C2135.6,712.494 2132.95,713.327 2130.5,714.618C2128.05,715.911 2125.91,717.633 2123.52,719.005C2116.64,722.96 2109.49,726.139 2101.33,725.275C2095.59,724.667 2091.55,721.359 2087.66,717.391C2085.06,714.736 2082.8,712.053 2081.95,708.33C2080.14,700.472 2084.53,694.879 2086.56,687.745C2088.13,682.242 2087.4,676.094 2087.46,670.537C2087.5,667.054 2088.5,663.716 2089.36,660.369C2090.53,655.847 2091.19,650.687 2093.03,646.385C2094.89,642.052 2099.16,638.201 2103.89,637.409C2107.19,636.856 2110.23,637.325 2110.37,641.112" style="fill:rgb(191,157,134);"/>
                </g>
                <path d="M2111.38,713.741C2116.91,715.765 2122.73,717.944 2128.53,715.578C2129.78,715.068 2133.13,714.066 2133.02,712.153C2132.9,710.215 2129.99,709.718 2128.64,709.435C2124.25,708.52 2118.45,708.928 2114.23,710.569C2113.12,711.001 2112.21,711.83 2111.38,712.662C2110.83,713.219 2110.34,713.752 2111.3,713.909" style="fill:rgb(174,135,109);"/>
                <path d="M2116.54,577.102C2088.36,590.742 2057.19,598.263 2029.99,613.853C2014.3,622.843 2000.45,631.528 1997.86,650.959C1996.04,664.623 2013.28,675.843 2025.18,678.544C2030.14,679.669 2036.21,678.827 2040.64,681.636C2045.36,684.625 2047.71,691.02 2049.35,696.067C2055.66,715.55 2049.7,741.487 2045.71,761.135C2043.62,771.441 2037.57,783.236 2044.74,792.767C2055.84,807.503 2075.84,806.401 2092.44,808.235C2099.14,808.975 2111.36,809.352 2111.69,819.194C2112.18,834.097 2094.09,838.19 2082.88,840.926C2051.85,848.495 2014.38,844.555 1987.98,865.483C1975.49,875.393 1963.41,887.887 1959.38,903.694C1957.46,911.221 1957.9,920.625 1953.9,927.325C1953,928.843 1949.84,933.675 1947.45,933.133C1943.49,932.234 1941.87,927.063 1941.35,923.62C1939.66,912.235 1940.98,902.327 1936.1,891.273C1935.49,889.898 1930.85,878.755 1928.95,879.237C1919.47,881.642 1921.07,908.827 1919.11,916.456C1917.72,921.861 1917.95,927.926 1910.99,923.724C1904.67,919.909 1900.49,913.829 1896.28,908.263C1891.21,901.564 1884.09,895.692 1878.65,889.014C1870.84,879.427 1859.34,873.192 1852.2,863.019C1849.44,859.091 1848.53,854.416 1846.46,850.163C1831.11,818.713 1835.11,789.894 1858.74,764.151C1868.35,753.67 1883.19,749.203 1897.05,747.993C1904.13,747.375 1917.22,749.459 1922.07,742.644C1932.95,727.372 1909.77,707.502 1914.9,692.217C1919.45,678.629 1930.49,672.906 1939.74,664.325C1951.64,653.28 1940.84,627.033 1949.18,614.055C1955.1,604.839 1968.08,585.748 1975.45,577.877C2001.33,550.243 2033.62,562.326 2072.34,556.965C2083.14,555.47 2122.65,553.814 2120.82,574.303" style="fill:rgb(193,164,145);"/>
                <path d="M2023.58,850.436C2012.32,870.365 1996.55,887.231 1980.79,903.581C1976.23,908.308 1971.94,913.28 1967.28,917.918C1963,922.175 1958.28,925.906 1954.12,930.302C1952.1,932.432 1950.07,934.682 1947.83,936.583C1944.04,939.789 1939.85,942.564 1935.92,945.607C1934.26,946.895 1932.02,948.805 1931.8,951.063C1931.65,952.587 1932.67,954.031 1933.23,955.398C1933.72,956.615 1934.28,957.744 1935.28,958.638C1937.22,960.372 1939.8,959.564 1941.26,957.634C1943.15,955.145 1943.2,951.736 1944.9,949.078C1948.14,944.019 1953.97,939.281 1958.45,935.478C1964.32,930.499 1970.68,926.181 1976.67,921.365C1983.49,915.876 1989.89,909.974 1996.49,904.231C2003.05,898.519 2009.99,893.288 2015.08,886.148C2021.17,877.607 2027.55,868.052 2030.52,857.866C2031.45,854.677 2033.44,846.244 2027.47,846.362C2026.69,846.377 2025.92,846.626 2025.18,846.867C2024.25,847.175 2025.16,848.371 2024.45,849.063C2021.91,851.509 2023.74,849.57 2022.26,852.715" style="fill:rgb(132,109,95);"/>
                <path d="M1955.97,657.395C1954.83,674.411 1952.66,697.441 1958.75,714.039C1962.4,724.014 1971.73,729.488 1978.03,737.543C1986.12,747.874 1991.62,761.149 1998.29,772.434C2005.19,784.116 2005.41,804.176 2019.27,810.754C2030.99,816.315 2042.66,811.569 2054.71,810.432C2065.12,809.45 2075.71,811.214 2086.12,811.441C2096.48,811.668 2108.33,807.415 2112.07,820.101C2114.42,828.062 2095.63,838.091 2089.42,839.694C2060.73,847.096 2018.68,845.072 1993.8,858.648C1981.2,865.527 1972.84,877.36 1966.15,889.708C1963.8,894.06 1958.69,907.124 1952.36,908.711C1949.61,909.399 1945.69,902.229 1944.73,900.457C1940.91,893.416 1936.23,869.97 1924.1,875.25C1916.42,878.591 1913.3,892.52 1913.58,900.793C1913.7,904.506 1916.79,912.357 1912.03,913.403C1900.64,915.908 1891.58,903.577 1885.62,895.499C1870.7,875.288 1851.75,861.912 1842.71,837.297C1840.28,830.694 1837.25,822.983 1837.2,815.875C1837.1,800.733 1844.74,785.731 1847.78,771.093C1850.26,759.145 1849.62,746.854 1852.4,734.914C1855.07,723.396 1856.37,710.553 1862.57,700.279C1871.09,686.182 1882.85,681.052 1895.3,672.474C1898.59,670.206 1896.26,662.573 1897.35,659.165C1899.12,653.603 1907.31,648.802 1912.64,647.076C1929.85,641.501 1941.38,655.797 1956.11,659.119" style="fill:rgb(176,153,137);"/>
                <path d="M1840.68,825.686C1850.11,847.096 1869.22,856.409 1886.16,871.186C1895.52,879.342 1901.38,889.573 1908.59,899.35C1913.35,905.81 1916.87,912.797 1918.4,920.713C1918.68,922.175 1918.14,928.202 1916.08,928.604C1912.88,929.228 1903.02,914.148 1900.76,911.345C1886.31,893.426 1864.08,881.14 1853.21,860.591C1848.78,852.211 1842.85,845.095 1839.92,835.942C1838.52,831.567 1834.7,824.324 1841.6,827.333" style="fill:rgb(132,109,95);"/>
            </g>
            <g id="Hair">
                <path d="M1967.42,594.263C1955.32,596.741 1943.55,599.711 1931.59,602.723C1920.34,605.556 1908.79,608.735 1897.15,609.354C1891.19,609.67 1885.51,607.102 1879.55,608.488C1869.67,610.788 1860.51,617.666 1851.88,622.545C1840.14,629.176 1828.1,635.135 1816.69,642.361C1800.78,652.443 1773.77,668.104 1779.73,691.939C1784.98,712.956 1809.78,704.893 1820.55,719.772C1824.55,725.294 1826.44,734.494 1828.78,740.862C1831.72,748.842 1836.12,756.205 1839.16,764.169C1840.83,768.549 1842.39,772.828 1844.59,776.969C1844.99,777.729 1845.8,780.3 1846.77,780.601C1847.72,780.892 1849.67,777.702 1850,777.097C1852.45,772.601 1851.51,767.164 1853.54,762.565C1862.04,743.319 1864.47,723.209 1866.46,704.212C1867.38,695.442 1876.89,690.134 1879.83,681.752C1882.12,675.211 1881.54,662.856 1887.3,658.006C1893.25,653.002 1903.43,649.025 1910.84,647.295C1916.32,646.018 1922.59,645.699 1927.59,642.928C1940.59,635.723 1949.06,620.325 1958.91,609.427C1963.33,604.544 1976.2,597.83 1974.7,590.237C1972.25,577.806 1951.5,580.83 1943.61,582.435C1936.59,583.862 1929.65,585.662 1922.58,586.805C1916.11,587.85 1909.29,587.643 1903.38,590.832C1893.3,596.274 1886.18,606.679 1878.54,614.995" style="fill:rgb(98,98,97);"/>
                <path d="M1884.31,607.765C1882.71,607.695 1881.1,607.782 1879.47,608.158C1875.48,609.08 1871.59,610.743 1867.81,612.726C1862.22,615.661 1856.86,619.295 1851.69,622.211C1843.47,626.852 1835.1,631.163 1826.9,635.811C1823.39,637.803 1819.9,639.858 1816.48,642.027C1806.93,648.08 1793.39,656.146 1785.33,666.768C1779.87,673.967 1776.92,682.335 1779.34,692.036C1780.9,698.305 1784.18,702.035 1788.3,704.558C1793.26,707.593 1799.45,708.86 1805.37,710.72C1811.07,712.513 1816.5,714.862 1820.22,720.006C1821.45,721.696 1822.47,723.735 1823.37,725.931C1825.39,730.877 1826.8,736.612 1828.41,741C1829,742.606 1829.65,744.187 1830.33,745.752C1833.06,751.97 1836.36,757.948 1838.79,764.311C1839.79,766.945 1840.76,769.543 1841.84,772.095C1842.57,773.803 1843.35,775.491 1844.23,777.157C1844.51,777.67 1844.97,779 1845.53,779.915C1845.87,780.462 1846.26,780.861 1846.66,780.983C1846.87,781.048 1847.11,781.027 1847.37,780.907C1847.65,780.777 1847.98,780.516 1848.3,780.178C1849.19,779.24 1850.13,777.696 1850.35,777.289C1850.85,776.365 1851.22,775.404 1851.5,774.419C1852.57,770.593 1852.28,766.392 1853.9,762.726C1857.22,755.205 1859.62,747.552 1861.43,739.884C1864.26,727.892 1865.64,715.865 1866.86,704.253C1867.14,701.613 1868.22,699.297 1869.65,697.113C1872.98,692.069 1878.17,687.711 1880.21,681.884C1881.78,677.408 1882,670.21 1883.83,664.555C1884.65,662.021 1885.79,659.8 1887.56,658.312C1890.5,655.836 1894.49,653.617 1898.66,651.798C1902.86,649.969 1907.24,648.546 1910.93,647.685C1914.76,646.792 1918.97,646.366 1922.87,645.248C1924.59,644.756 1926.25,644.13 1927.79,643.278C1931.8,641.055 1935.38,638.061 1938.71,634.659C1946.19,627 1952.37,617.264 1959.21,609.695C1962.19,606.404 1968.99,602.279 1972.67,597.617C1974.54,595.255 1975.6,592.752 1975.09,590.16C1974.06,584.91 1969.89,582.301 1964.74,581.197C1957.47,579.638 1948.23,581.087 1943.53,582.043C1938.62,583.042 1933.74,584.224 1928.83,585.235C1926.73,585.667 1924.63,586.068 1922.51,586.41C1918.63,587.037 1914.62,587.214 1910.76,587.943C1908.15,588.437 1905.6,589.183 1903.19,590.48C1899.1,592.69 1895.49,595.708 1892.13,599.076C1889.4,601.825 1886.83,604.807 1884.31,607.765ZM1883.76,608.409C1882.39,608.387 1881.02,608.492 1879.63,608.819C1875.69,609.743 1871.87,611.404 1868.15,613.37C1862.58,616.318 1857.23,619.955 1852.07,622.879C1843.85,627.525 1835.48,631.841 1827.29,636.493C1823.79,638.482 1820.32,640.532 1816.9,642.696C1807.42,648.708 1793.97,656.704 1785.97,667.251C1780.65,674.259 1777.76,682.399 1780.12,691.842C1781.62,697.864 1784.76,701.452 1788.72,703.876C1793.62,706.878 1799.76,708.116 1805.61,709.957C1811.47,711.801 1817.04,714.245 1820.87,719.537C1822.13,721.275 1823.18,723.37 1824.11,725.628C1826.14,730.583 1827.54,736.328 1829.16,740.724C1829.74,742.314 1830.39,743.88 1831.07,745.431C1833.8,751.661 1837.1,757.651 1839.54,764.026C1840.54,766.651 1841.5,769.239 1842.58,771.782C1843.3,773.469 1844.07,775.136 1844.94,776.782C1845.17,777.224 1845.55,778.278 1846.01,779.141C1846.17,779.444 1846.34,779.722 1846.53,779.932C1846.65,780.069 1846.76,780.179 1846.89,780.219C1846.93,780.229 1846.97,780.21 1847.01,780.193C1847.09,780.16 1847.17,780.108 1847.26,780.043C1847.51,779.861 1847.77,779.587 1848.03,779.277C1848.77,778.399 1849.46,777.242 1849.65,776.906C1850.12,776.036 1850.46,775.13 1850.73,774.202C1851.81,770.34 1851.54,766.103 1853.17,762.403C1856.47,754.927 1858.86,747.321 1860.65,739.701C1863.47,727.742 1864.85,715.749 1866.06,704.17C1866.35,701.4 1867.48,698.965 1868.99,696.673C1872.27,691.681 1877.43,687.386 1879.45,681.62C1881.02,677.148 1881.24,669.958 1883.07,664.309C1883.94,661.621 1885.17,659.278 1887.04,657.7C1890.04,655.18 1894.1,652.916 1898.34,651.065C1902.59,649.215 1907.02,647.777 1910.75,646.906C1914.02,646.142 1917.58,645.721 1920.99,644.913C1923.24,644.378 1925.42,643.674 1927.4,642.578C1931.34,640.392 1934.86,637.445 1938.13,634.1C1945.61,626.448 1951.78,616.72 1958.62,609.159C1961.58,605.877 1968.38,601.77 1972.04,597.121C1973.75,594.96 1974.77,592.686 1974.31,590.314C1973.34,585.401 1969.39,583.013 1964.57,581.979C1957.41,580.444 1948.32,581.885 1943.69,582.827C1938.78,583.826 1933.9,585.008 1928.99,586.019C1926.88,586.453 1924.77,586.856 1922.64,587.2C1918.76,587.826 1914.77,588.002 1910.91,588.729C1908.38,589.208 1905.9,589.927 1903.57,591.184C1899.55,593.357 1896,596.329 1892.7,599.64C1890.12,602.234 1887.69,605.035 1885.3,607.828C1889.24,608.148 1893.12,609.263 1897.14,609.061C1901.79,608.826 1906.42,608.182 1911.03,607.314C1917.94,606.013 1924.8,604.211 1931.54,602.533C1938.73,600.741 1945.85,598.968 1953.01,597.3C1957.78,596.19 1962.56,595.125 1967.4,594.141C1967.47,594.127 1967.53,594.17 1967.55,594.238C1967.56,594.306 1967.52,594.372 1967.45,594.386C1962.62,595.381 1957.83,596.453 1953.08,597.579C1945.92,599.273 1938.81,601.087 1931.64,602.912C1924.89,604.631 1918.04,606.475 1911.13,607.816C1906.5,608.713 1901.84,609.386 1897.17,609.646C1892.98,609.881 1888.92,608.698 1884.81,608.45L1884.78,608.448C1882.79,610.779 1880.83,613.094 1878.84,615.266C1878.69,615.428 1878.43,615.439 1878.27,615.29C1878.11,615.14 1878.1,614.887 1878.25,614.724C1880.1,612.708 1881.92,610.57 1883.76,608.409Z" style="fill:rgb(98,98,97);"/>
                <path d="M1844.57,785.314C1856.52,762.26 1863.58,736.686 1865.48,710.792" style="fill:rgb(98,98,97);"/>
                <path d="M1845.53,785.808C1851.51,774.204 1856.31,761.983 1859.75,749.379C1863.18,736.796 1865.26,723.844 1866.08,710.836C1866.1,710.503 1865.85,710.214 1865.52,710.19C1865.19,710.165 1864.9,710.415 1864.88,710.748C1863.8,723.631 1861.4,736.406 1857.84,748.845C1854.29,761.27 1849.58,773.366 1843.62,784.82C1843.35,785.346 1843.55,785.995 1844.08,786.268C1844.61,786.541 1845.25,786.335 1845.53,785.808Z"/>
                <path d="M1971.81,598.128C1965.47,605.146 1958.6,612.112 1956.31,621.611C1953.95,631.349 1958.14,640.842 1956.51,650.32C1954.59,661.55 1939,670.648 1927.99,667.66C1922.86,666.268 1920.09,661.822 1916.12,658.752C1911.27,655.001 1905.03,652.118 1899.15,650.461" style="fill:rgb(98,98,97);"/>
                <path d="M1971.34,597.698C1967.5,601.929 1963.46,606.136 1960.37,610.9C1958.27,614.116 1956.61,617.587 1955.69,621.462C1955.22,623.42 1955.01,625.368 1954.96,627.308C1954.77,635.034 1957.22,642.629 1955.92,650.218C1954.98,655.703 1950.66,660.647 1945.27,663.857C1939.91,667.041 1933.48,668.528 1928.14,667.081C1926.69,666.687 1925.44,666.034 1924.29,665.237C1921.46,663.263 1919.27,660.43 1916.49,658.277C1914.03,656.377 1911.22,654.696 1908.28,653.28C1905.35,651.868 1902.28,650.721 1899.31,649.883C1898.99,649.793 1898.66,649.979 1898.57,650.298C1898.48,650.616 1898.67,650.948 1898.99,651.038C1901.89,651.858 1904.89,652.98 1907.76,654.362C1910.62,655.74 1913.36,657.376 1915.75,659.226C1918.55,661.391 1920.76,664.236 1923.61,666.221C1924.86,667.095 1926.24,667.807 1927.83,668.239C1933.45,669.764 1940.24,668.244 1945.88,664.889C1951.59,661.493 1956.11,656.225 1957.11,650.421C1958.42,642.779 1955.98,635.123 1956.2,627.341C1956.25,625.489 1956.47,623.629 1956.92,621.76C1957.83,618.038 1959.47,614.722 1961.49,611.631C1964.56,606.929 1968.51,602.75 1972.29,598.557C1972.53,598.295 1972.5,597.89 1972.24,597.652C1971.98,597.415 1971.58,597.436 1971.34,597.698Z"/>
            </g>
            <g id="Glasses">
                <path d="M2138.1,673.415C2126.03,660.333 2114.45,644.854 2116.32,627.207C2116.42,626.198 2117.03,625.675 2117.23,624.648C2117.45,623.178 2123.1,619.031 2124.25,618.419C2130.16,615.27 2140.22,611.303 2145.13,617.774C2153.12,628.312 2144.56,647.038 2142.19,658.429C2141.18,663.247 2140.64,669.115 2138.1,673.415Z" style="fill:rgb(26,26,26);"/>
                <path d="M2137.65,673.822C2137.78,673.962 2137.97,674.032 2138.16,674.012C2138.35,673.992 2138.52,673.884 2138.62,673.721C2139.67,671.939 2140.39,669.896 2140.94,667.767C2141.74,664.692 2142.18,661.434 2142.78,658.552C2144.41,650.725 2148.93,639.448 2149.06,629.72C2149.13,625.109 2148.21,620.841 2145.61,617.41C2143.47,614.587 2140.41,613.613 2137.11,613.7C2132.55,613.821 2127.52,615.992 2123.97,617.886C2123.19,618.298 2120.43,620.266 2118.56,621.997C2117.49,622.994 2116.73,623.964 2116.63,624.542C2116.48,625.342 2116.06,625.823 2115.85,626.494C2115.79,626.695 2115.74,626.908 2115.72,627.143C2114.94,634.462 2116.44,641.415 2119.33,647.984C2123.47,657.408 2130.47,666.041 2137.65,673.827L2137.65,673.822ZM2137.98,672.391C2131.09,664.865 2124.42,656.555 2120.43,647.497C2117.63,641.121 2116.16,634.375 2116.92,627.271L2117.82,624.76C2117.82,624.753 2117.82,624.745 2117.82,624.737C2117.91,624.181 2118.93,623.255 2120.07,622.265C2121.78,620.789 2123.89,619.295 2124.53,618.951C2127.95,617.132 2132.77,615.021 2137.14,614.905C2140.05,614.828 2142.76,615.649 2144.65,618.138C2147.85,622.366 2148.29,627.957 2147.57,633.836C2146.51,642.425 2142.99,651.629 2141.6,658.307C2141,661.172 2140.57,664.41 2139.78,667.466C2139.33,669.203 2138.77,670.881 2137.98,672.391L2137.98,672.391Z"/>
                <path d="M2058.65,637.535C2060.49,640.387 2060.9,640.288 2060.9,643.516C2060.89,656.68 2056.28,670.499 2069.12,679.377C2071.74,681.193 2074.87,682.503 2078.11,682.166C2094.04,680.511 2103.66,668.22 2105.94,653.222C2106.59,648.945 2106.02,644.328 2107.82,640.304C2108.43,638.917 2109.2,637.421 2110.47,636.511C2110.9,636.205 2111.37,635.994 2111.87,635.843C2111.97,635.813 2114.29,634.933 2114.88,632.991C2115.8,629.947 2114.84,627.664 2114.55,625.566L2115.38,625.587C2105.91,625.587 2102.38,617.74 2094.09,615.81C2085.09,613.716 2070.9,619.558 2062.12,621.6C2058.92,622.343 2053.56,623.058 2052.57,626.84C2051.45,631.067 2056.28,634.681 2058.65,637.535Z" style="fill:rgb(26,26,26);"/>
                <path d="M2115.26,626.187C2115.48,627.355 2115.81,628.595 2115.86,629.998C2115.9,630.971 2115.8,632.018 2115.45,633.166C2115.2,634.007 2114.67,634.681 2114.09,635.19C2113.16,636.014 2112.12,636.399 2112.05,636.42L2110.82,637C2110.37,637.328 2109.99,637.741 2109.65,638.198C2109.12,638.923 2108.72,639.755 2108.37,640.549C2107.85,641.714 2107.54,642.931 2107.34,644.174C2106.85,647.174 2106.99,650.326 2106.54,653.312C2105.38,660.948 2102.34,667.89 2097.57,673.132C2092.79,678.375 2086.29,681.924 2078.18,682.767C2076.46,682.945 2074.78,682.691 2073.18,682.149C2071.62,681.619 2070.13,680.813 2068.77,679.875C2063.51,676.238 2061.1,671.794 2060.1,666.91C2058.62,659.692 2060.28,651.484 2060.29,643.515C2060.29,642.353 2060.25,641.652 2060.08,641.077C2059.81,640.139 2059.22,639.539 2058.14,637.864L2058.19,637.918C2056.77,636.217 2054.5,634.244 2053.1,632.037C2052.05,630.376 2051.49,628.585 2051.99,626.687C2052.44,624.97 2053.68,623.805 2055.26,622.992C2057.35,621.912 2060.05,621.463 2061.98,621.015C2068,619.617 2076.54,616.444 2084.22,615.242C2087.86,614.672 2091.3,614.545 2094.22,615.224C2100.2,616.615 2103.73,621.035 2108.74,623.452C2110.47,624.284 2112.38,624.865 2114.64,624.966L2115.39,624.985C2115.72,624.993 2115.98,625.265 2115.98,625.594C2115.97,625.924 2115.71,626.189 2115.38,626.189L2115.36,626.188L2115.36,626.188L2115.36,626.188L2115.26,626.187ZM2114.03,626.134C2114.24,627.328 2114.61,628.595 2114.66,630.041C2114.69,630.893 2114.61,631.81 2114.3,632.816C2114.11,633.431 2113.72,633.916 2113.29,634.288C2112.56,634.934 2111.75,635.25 2111.7,635.267L2110.12,636.021C2109.56,636.423 2109.09,636.927 2108.68,637.488C2108.1,638.282 2107.65,639.19 2107.27,640.059C2106.7,641.319 2106.36,642.635 2106.15,643.982C2105.66,646.985 2105.8,650.142 2105.35,653.131C2104.22,660.521 2101.29,667.246 2096.67,672.32C2092.09,677.354 2085.84,680.756 2078.05,681.565C2076.51,681.725 2075.01,681.49 2073.57,681.004C2072.11,680.51 2070.72,679.755 2069.46,678.88C2064.51,675.453 2062.23,671.269 2061.28,666.667C2059.82,659.524 2061.5,651.402 2061.5,643.516C2061.51,642.191 2061.43,641.393 2061.24,640.738C2060.94,639.713 2060.34,639.037 2059.16,637.206L2059.11,637.151C2057.72,635.483 2055.49,633.557 2054.12,631.395C2053.25,630.025 2052.73,628.558 2053.15,626.992C2053.51,625.615 2054.54,624.712 2055.81,624.06C2057.81,623.025 2060.4,622.614 2062.25,622.185C2068.24,620.793 2076.75,617.627 2084.4,616.43C2087.88,615.887 2091.17,615.748 2093.95,616.396C2099.83,617.765 2103.29,622.157 2108.22,624.536C2109.94,625.364 2111.82,625.961 2114.03,626.134ZM2114.48,626.164L2114.54,626.167L2114.55,626.168C2114.52,626.168 2114.5,626.167 2114.48,626.164Z"/>
                <path d="M2053.25,633.91C2053.6,633.737 2053.35,633.476 2053.47,633.232C2053.75,632.691 2052.57,631.636 2052.45,630.974C2052.26,629.959 2052.41,628.761 2052.41,627.739C2052.41,627.256 2052.11,626.661 2052.32,626.461C2052.62,625.84 2051.16,626.035 2050.47,626.062C2049.09,626.117 2047.71,626.153 2046.33,626.186C2042.33,626.284 2038.34,626.36 2034.34,626.454C2022.34,626.737 2010.35,627.247 1998.36,628.038C1961.95,630.441 1883.73,640.913 1885.12,640.883C1885.1,640.831 1884.11,641.295 1884.05,641.505C1883.91,642.075 1884.62,642.579 1885.01,642.844C1885.72,643.334 1892.81,646.409 1894.41,647.041C1894.94,647.253 1897.37,648.23 1897.73,648.431C1898.44,648.827 1899.91,649.086 1900.58,648.408L1898.3,648.54C1938.11,643.308 1972.41,640.185 2012.45,637.017C2022.41,636.229 2032.35,635.5 2042.33,635.013C2044.64,634.9 2046.96,634.795 2049.26,634.576C2049.38,634.565 2054.47,633.895 2054.52,634.003" style="fill:rgb(26,26,26);"/>
                <path d="M1884.77,639.415L1884.75,639.419L1884.7,639.433L1884.69,639.435C1884.58,639.467 1884.48,639.507 1884.4,639.548C1884.02,639.708 1883.48,639.987 1883.2,640.224C1882.82,640.54 1882.66,640.899 1882.6,641.139C1882.46,641.674 1882.54,642.195 1882.79,642.678C1883.08,643.255 1883.73,643.783 1884.15,644.079C1884.89,644.585 1892.21,647.783 1893.86,648.436C1894.36,648.636 1896.65,649.551 1896.99,649.74C1897.62,650.088 1898.64,650.37 1899.57,650.321C1900.29,650.283 1900.94,650.052 1901.44,649.644C1939.98,644.644 1973.55,641.599 2012.57,638.512C2022.52,637.726 2032.44,636.998 2042.4,636.511C2044.74,636.397 2047.08,636.291 2049.4,636.069C2049.5,636.06 2053.93,635.547 2054.38,635.496C2054.65,635.522 2054.93,635.475 2055.19,635.344C2055.93,634.974 2056.23,634.072 2055.86,633.332C2055.82,633.24 2055.56,632.773 2054.96,632.578C2054.92,632.384 2054.85,632.184 2054.75,631.979C2054.55,631.571 2054,630.751 2053.91,630.621C2053.75,629.71 2053.91,628.648 2053.91,627.739C2053.91,627.49 2053.84,627.065 2053.78,626.814C2053.93,626.352 2053.86,625.965 2053.72,625.648C2053.56,625.269 2053.26,624.922 2052.76,624.713C2052.25,624.5 2051.08,624.537 2050.41,624.563C2049.04,624.618 2047.66,624.653 2046.29,624.687C2042.3,624.785 2038.3,624.861 2034.31,624.955C2022.28,625.238 2010.27,625.749 1998.26,626.541C1965.46,628.706 1898.76,637.412 1886.76,639.11C1885.61,639.273 1884.93,639.379 1884.79,639.41L1884.77,639.415ZM1901.1,649.688L1900.57,649.757L1900.58,649.908L1901.1,649.688ZM2050.89,627.549L2050.53,627.561C2049.14,627.616 2047.75,627.652 2046.36,627.686C2042.37,627.784 2038.37,627.86 2034.38,627.954C2022.39,628.236 2010.42,628.745 1998.46,629.534C1965.72,631.695 1899.15,640.386 1887.18,642.08L1886.87,642.125C1889,643.136 1893.72,645.153 1894.96,645.647C1895.47,645.847 1897.57,646.703 1898.28,647.031C1938.03,641.809 1972.32,638.687 2012.33,635.522C2022.31,634.733 2032.26,634.003 2042.26,633.514C2044.54,633.403 2046.84,633.3 2049.12,633.083C2049.17,633.077 2050.43,632.915 2051.7,632.762C2051.57,632.559 2051.43,632.338 2051.35,632.187C2051.15,631.855 2051.03,631.532 2050.97,631.253C2050.76,630.15 2050.91,628.849 2050.91,627.739C2050.91,627.677 2050.91,627.613 2050.89,627.549ZM1883.7,641.347L1883.69,641.357C1883.71,641.417 1883.74,641.48 1883.77,641.543L1883.74,641.463C1883.73,641.435 1883.72,641.408 1883.71,641.38L1883.7,641.347ZM2052.53,632.59L2052.58,632.564C2052.57,632.572 2052.55,632.581 2052.53,632.59Z"/>
            </g>
            <g id="Ear">
                <path d="M1874.6,643.011C1863.01,643.47 1864.34,645.917 1859.9,650.564C1856.56,654.072 1855.04,658.901 1853.89,663.5C1851.16,674.447 1851.54,687.268 1855.87,697.789C1862.79,714.623 1877.99,726.667 1892.38,736.849C1899.27,741.721 1903.77,747.775 1912.27,750.234C1914.18,750.786 1916.47,751.687 1918.5,751.386C1920.61,751.073 1922.36,748.968 1923.48,747.308C1927.03,742.075 1926.16,735.354 1923.63,729.9C1922.17,726.755 1920.08,724.381 1917.35,722.262C1917.17,722.126 1913.04,719.314 1913.16,719.108C1914.75,716.302 1919.27,714.72 1920,711.562C1920.69,708.596 1917.66,705.133 1915.53,703.437C1910.32,699.275 1904.77,696.703 1903.11,689.516C1900.81,679.574 1910.35,672.962 1910.37,663.446C1910.38,657.596 1904.57,653.526 1900.41,649.926C1891.4,642.121 1886.52,642.539 1874.6,643.011Z" style="fill:rgb(193,164,145);"/>
                <path d="M1914.2,718.997C1915.59,717.103 1918.27,715.762 1919.73,713.901C1920.24,713.247 1920.62,712.538 1920.81,711.748C1921.13,710.351 1920.77,708.852 1920.03,707.44C1919.05,705.563 1917.39,703.839 1916.06,702.773C1912.94,700.27 1909.69,698.354 1907.27,695.638C1905.77,693.962 1904.61,691.969 1904,689.31C1903.38,686.535 1903.74,684.041 1904.55,681.673C1906.62,675.594 1911.39,670.255 1911.45,663.448C1911.47,660.804 1910.44,658.477 1908.87,656.379C1906.78,653.573 1903.71,651.19 1901.22,648.991C1896.46,644.782 1892.78,642.851 1888.69,641.971C1884.82,641.137 1880.55,641.286 1874.53,641.444L1874.53,641.444C1869.87,641.663 1867.18,642.204 1865.38,643.018C1862.41,644.361 1861.79,646.464 1858.86,649.569C1857.43,651.09 1856.31,652.833 1855.41,654.7C1854.12,657.384 1853.28,660.321 1852.59,663.175C1851.22,668.777 1850.66,674.853 1850.99,680.87C1851.33,686.892 1852.56,692.855 1854.81,698.225C1857.66,705.072 1861.86,711.132 1866.82,716.599C1874.15,724.694 1883.14,731.489 1891.85,737.602C1896.02,740.536 1899.32,743.904 1903.16,746.647C1905.74,748.495 1908.57,750.067 1912.03,751.06C1913.19,751.394 1914.5,751.852 1915.8,752.103C1916.75,752.288 1917.71,752.362 1918.62,752.225C1919.62,752.075 1920.55,751.597 1921.39,750.936C1922.51,750.049 1923.46,748.831 1924.17,747.777C1926.05,745.004 1926.76,741.839 1926.66,738.645C1926.56,735.524 1925.68,732.376 1924.37,729.555C1923.61,727.916 1922.68,726.478 1921.59,725.173C1920.5,723.88 1919.26,722.717 1917.85,721.622C1917.71,721.519 1915.29,719.866 1914.2,718.997ZM1874.66,644.578C1880.38,644.275 1884.43,643.979 1888.14,644.684C1891.87,645.393 1895.21,647.138 1899.6,650.861C1902.02,652.915 1905.02,655.109 1907.06,657.753C1908.36,659.434 1909.27,661.297 1909.29,663.444C1909.32,670.011 1904.67,675.178 1902.73,681.064C1901.85,683.758 1901.48,686.586 1902.22,689.722C1902.92,692.713 1904.26,694.945 1905.95,696.821C1908.46,699.588 1911.79,701.553 1915,704.101C1916.19,705.041 1917.68,706.555 1918.56,708.218C1919.11,709.255 1919.43,710.347 1919.2,711.376C1919,712.223 1918.47,712.927 1917.82,713.583C1916.09,715.309 1913.57,716.726 1912.45,718.707C1912.39,718.823 1912.3,719.533 1912.99,720.109C1913.99,720.935 1916.71,722.792 1916.85,722.901C1918.17,723.925 1919.33,725.008 1920.34,726.217C1921.34,727.416 1922.19,728.738 1922.89,730.244C1924.11,732.868 1924.93,735.794 1925.01,738.695C1925.1,741.544 1924.47,744.369 1922.79,746.838C1922.16,747.761 1921.33,748.835 1920.34,749.611C1919.75,750.081 1919.09,750.442 1918.37,750.547C1917.65,750.653 1916.88,750.578 1916.12,750.428C1914.87,750.183 1913.63,749.733 1912.51,749.408C1909.26,748.459 1906.61,746.964 1904.19,745.213C1900.36,742.447 1897.08,739.056 1892.91,736.096C1884.37,730.004 1875.53,723.255 1868.36,715.208C1863.62,709.886 1859.62,703.994 1856.92,697.354C1854.84,692.205 1853.72,686.499 1853.47,680.746C1853.21,674.983 1853.82,669.173 1855.19,663.826C1855.88,661.166 1856.68,658.426 1857.93,655.933C1858.72,654.339 1859.7,652.85 1860.95,651.559C1863.55,648.877 1863.98,646.905 1866.6,645.767C1868.19,645.076 1870.57,644.71 1874.66,644.578L1874.66,644.578Z"/>
                <path d="M1882.61,691.523C1884.47,690.242 1886.08,688.843 1887.52,687.403C1890.05,684.875 1891.93,682.146 1893.02,679.109C1893.8,676.949 1894.15,674.662 1894.07,672.27C1893.95,669.139 1892.97,665.86 1891.27,662.44C1889.7,659.417 1886.69,654.007 1882.95,651.693C1880.73,650.325 1878.29,649.882 1875.69,650.932C1871.5,652.623 1868.66,656.218 1866.82,660.587C1864.39,666.354 1863.69,673.472 1863.34,678.321C1863.16,680.875 1863.09,683.461 1863.26,686.03C1863.67,692.118 1865.17,698.097 1867.71,703.448C1871.34,711.116 1877.18,717.502 1885.8,720.957C1887.9,721.82 1890.08,722.435 1892.31,722.901C1895.58,723.59 1898.94,723.953 1902.24,724.227C1902.61,724.265 1902.94,723.995 1902.98,723.626C1903.01,723.257 1902.75,722.927 1902.38,722.89C1899.16,722.508 1895.87,722.064 1892.69,721.255C1890.6,720.724 1888.56,720.026 1886.62,719.111C1878.93,715.408 1873.97,709.218 1871.1,701.975C1869.11,696.928 1868.26,691.371 1868.06,685.781C1867.97,683.405 1867.96,681.022 1868.13,678.664C1868.45,674.235 1869.02,667.721 1871.24,662.454C1872.57,659.31 1874.47,656.599 1877.49,655.382C1878.99,654.775 1880.32,655.539 1881.51,656.6C1884.01,658.813 1885.93,662.488 1887.06,664.639C1888.57,667.393 1889.39,670.058 1889.7,672.615C1889.93,674.518 1889.93,676.352 1889.58,678.154C1889.12,680.472 1888.29,682.733 1886.88,684.863C1885.57,686.845 1883.84,688.692 1881.79,690.456C1881.49,690.682 1881.44,691.104 1881.66,691.399C1881.89,691.693 1882.31,691.748 1882.61,691.523Z" style="fill:rgb(176,153,137);"/>
                <path d="M1894.43,695.072L1894.67,694.833C1894.62,694.888 1894.41,694.992 1894.43,695.072L1893.79,695.7L1890.92,698.667C1889.38,700.541 1887.83,702.139 1886.14,703.724C1884.96,704.832 1883.85,705.932 1882.56,707.046C1881.38,707.76 1881.01,709.295 1881.72,710.472C1882.43,711.649 1883.97,712.026 1885.15,711.312C1887.73,710.28 1890.04,709.28 1892.34,707.976C1893.37,707.394 1894.33,706.73 1895.29,706.018L1895.37,706.183C1897.17,709.858 1899.23,712.181 1901.92,713.628C1904.34,714.927 1907.17,715.632 1910.68,715.961C1912.04,716.195 1913.33,715.282 1913.56,713.926C1913.79,712.569 1912.88,711.278 1911.53,711.045C1908.97,710.399 1906.92,709.641 1905.28,708.4C1903.86,707.323 1903.01,705.717 1902.31,703.435C1902.12,702.786 1902.15,702.142 1902.15,701.504C1902.15,700.197 1902.42,698.907 1902.63,697.568C1902.78,696.564 1902.46,695.907 1902.32,695.497C1901.89,694.246 1900.96,693.672 1900.13,693.227C1899.15,692.695 1897.65,692.51 1895.9,693.585C1895.64,693.74 1895.12,695.603 1894.45,695.111C1894.44,695.099 1894.43,695.086 1894.43,695.072ZM1900.84,700.906L1901.07,700.646C1901.24,700.458 1901.4,699.573 1901.71,699.774C1902.41,700.216 1901.7,700.617 1900.84,700.906Z" style="fill:rgb(176,153,137);"/>
            </g>
            <g id="Hat">
                <path d="M1793.17,543.977C1793.17,523.671 1780.82,492.651 1790.72,474.16C1796.31,463.727 1823.58,452.05 1833.83,443.641C1855.39,425.962 1880.19,412.827 1904.72,399.488C1954.19,372.584 1978,355.515 2031.53,384.508C2049.69,394.34 2053.09,410.196 2060.86,427.275C2073.72,455.557 2085.6,483.975 2095.31,513.549" style="fill:rgb(235,215,168);"/>
                <clipPath id="_clip1">
                    <path d="M1793.17,543.977C1793.17,523.671 1780.82,492.651 1790.72,474.16C1796.31,463.727 1823.58,452.05 1833.83,443.641C1855.39,425.962 1880.19,412.827 1904.72,399.488C1954.19,372.584 1978,355.515 2031.53,384.508C2049.69,394.34 2053.09,410.196 2060.86,427.275C2073.72,455.557 2085.6,483.975 2095.31,513.549"/>
                </clipPath>
                <g clip-path="url(#_clip1)">
                    <path d="M1995.13,373.092C1994.17,372.452 1990.94,377.87 1990.71,378.282C1987.23,384.378 1985.84,391.572 1985.69,398.529C1985.26,419.47 1985.67,440.462 1985.67,461.409C1985.67,470.631 1987.8,482.722 1983.64,491.401C1977.71,503.744 1964.25,502.149 1951.94,502.886C1941.56,503.507 1930.95,502.759 1920.64,503.955C1913.03,504.837 1906.21,505.631 1898.59,506.386C1892,507.038 1884.98,508.241 1878.39,509.138C1869.97,510.285 1861.66,512.105 1853.29,513.555C1851.54,513.859 1846.88,515.78 1845.37,514.179C1844.37,513.116 1845.64,511.289 1845.98,510.193C1847.43,505.524 1851.21,503.407 1854.43,500.436C1858.24,496.912 1862.49,495.45 1867.13,492.915C1872.13,490.185 1877.21,486.854 1882.73,485.216C1889.83,483.108 1897.05,482.637 1903.85,479.31C1907.39,477.579 1909.91,474.77 1913.19,472.771C1916.68,470.652 1920.47,469.414 1923.69,466.775C1925.87,464.991 1927.37,462.486 1929.66,460.843C1933.79,457.888 1939.15,456.903 1942.63,452.999C1946.29,448.889 1946.63,443.165 1949.8,438.926C1953.32,434.211 1959.28,430.267 1962.25,425.378C1964.18,422.205 1964.66,417.171 1965.94,413.628C1967.46,409.459 1970.23,406.065 1971.76,401.923C1973.12,398.221 1972.99,394.787 1973.67,391.036C1974.53,386.328 1979.38,377.221 1983.56,374.905C1985.66,373.742 1987.4,372.247 1989.59,371.656C1992.19,370.953 1994.76,370.676 1995.13,373.092Z" style="fill:rgb(175,160,129);"/>
                    <path d="M1848.74,512.651L1828.65,526.927L1794.31,541.956L1791.88,526.144L1787.88,494.573L1788.52,473.902L1833.41,443.893L1909.01,398.134L1942.19,381.261L1988.27,365.149C1979.15,393.193 1966.69,420.772 1947.84,447.465C1932.67,459.822 1915.67,482.9 1866.14,494.508L1848.74,512.651Z" style="fill:rgb(175,160,129);"/>
                    <path d="M1970.36,400.695C1971.82,397.653 1974.49,393.674 1970.36,400.695C1965.19,409.482 1961.42,420.259 1953.58,427.168C1942.84,436.637 1930.85,442.28 1918.52,449.374C1884.07,469.194 1846.88,483.348 1811.12,500.654C1797.97,507.019 1793.13,518.199 1787.42,530.832C1786.36,533.167 1791.42,538.733 1792.51,541.3C1793.63,543.962 1799.76,541.846 1801.58,541.103C1809.88,537.713 1833.04,527.608 1840.01,521.97C1848.79,514.869 1842.09,511.643 1851.97,505.981C1867.79,496.913 1880.09,487.427 1897.53,479.642C1909.26,474.408 1930.65,461.751 1939.99,453.201C1957.14,437.504 1951.15,441.208 1964.45,422.083C1971.07,412.563 1965.32,411.167 1970.36,400.695Z" style="fill:rgb(146,134,115);"/>
                </g>
                <path d="M1794.02,543.977C1794.19,540.492 1793.97,536.696 1793.66,532.672C1793.39,529.068 1793.18,525.303 1792.66,521.464C1792.55,520.648 1792.39,519.836 1792.25,519.018C1790.87,510.92 1789.46,502.563 1789.23,494.756C1789.03,487.536 1789.81,480.797 1792.77,475.259C1794.53,471.988 1798.64,468.657 1803.59,465.285C1814.13,458.115 1828.48,451.054 1835.32,445.45C1843.88,438.43 1852.96,432.134 1862.33,426.258C1876.43,417.418 1891.18,409.526 1905.84,401.558C1935.9,385.223 1956.3,372.445 1979.91,371.806C1994.51,371.411 2010.3,375.712 2030.4,386.601C2037.13,390.248 2041.72,394.767 2045.26,399.888C2050.98,408.184 2054.02,418.006 2058.68,428.263C2065.1,442.378 2071.27,456.527 2077.05,470.837C2082.82,485.12 2088.2,499.565 2093.03,514.297C2093.44,515.555 2094.8,516.242 2096.06,515.829C2097.32,515.416 2098,514.059 2097.59,512.8C2092.72,497.968 2087.3,483.424 2081.49,469.043C2075.68,454.672 2069.48,440.462 2063.03,426.287C2058.24,415.756 2055.06,405.697 2049.18,397.18C2045.25,391.489 2040.15,386.466 2032.67,382.415C2011.63,371.023 1995.06,366.644 1979.78,367.062C1955.53,367.727 1934.47,380.622 1903.59,397.418C1888.85,405.438 1874.02,413.386 1859.84,422.283C1850.3,428.269 1841.07,434.683 1832.35,441.832C1825.59,447.376 1811.39,454.335 1800.97,461.429C1795.27,465.311 1790.68,469.297 1788.67,473.06C1785.34,479.27 1784.32,486.806 1784.59,494.899C1784.85,502.916 1786.36,511.491 1787.88,519.79C1788.03,520.606 1788.15,521.424 1788.33,522.229C1789.14,525.972 1790.2,529.548 1790.9,533.052C1791.67,536.907 1792.16,540.582 1792.33,543.977C1792.33,544.441 1792.71,544.818 1793.17,544.818C1793.64,544.818 1794.02,544.441 1794.02,543.977Z"/>
                <path d="M2125.96,593.637C2135.92,591.475 2141.83,590.197 2151.36,586.539C2159.17,583.539 2166.9,580.338 2174.63,577.135C2180.72,574.612 2186.78,571.982 2192.77,569.238C2197.72,566.971 2202.7,564.761 2207.7,562.604C2220.45,557.107 2273.49,547.467 2250.1,526.955C2245.77,523.16 2225.81,523.463 2220.7,523.754C2199.06,524.987 2179.49,523.337 2157.83,521.825C2133.71,520.141 2109.97,515.259 2085.99,512.318C2033.73,505.905 1980.04,501.308 1927.37,503.874C1905.98,504.916 1882.51,506.111 1861.93,512.449C1841.23,518.826 1811.67,533.374 1793.17,543.977C1743.86,572.244 1721.29,591.668 1690.51,641.901C1662.29,687.966 1692.87,739.324 1746.95,737.46C1764.16,736.867 1802.29,722.123 1823.11,717.712C1820.48,705.294 1810.13,669.769 1811.24,661.499C1814.96,633.837 1872.28,621.111 1892.67,614.629C1900.98,611.986 1909.36,609.568 1917.78,607.291C1928.28,604.45 1938.78,601.562 1949.34,598.927C1962.89,595.546 1976.63,592.814 1990.08,589.031C2014.98,582.029 2039.4,573.495 2064.63,567.646C2104.08,558.501 2115.44,554.675 2125.96,593.637Z" style="fill:rgb(175,160,129);"/>
                <clipPath id="_clip2">
                    <path d="M2125.96,593.637C2135.92,591.475 2141.83,590.197 2151.36,586.539C2159.17,583.539 2166.9,580.338 2174.63,577.135C2180.72,574.612 2186.78,571.982 2192.77,569.238C2197.72,566.971 2202.7,564.761 2207.7,562.604C2220.45,557.107 2273.49,547.467 2250.1,526.955C2245.77,523.16 2225.81,523.463 2220.7,523.754C2199.06,524.987 2179.49,523.337 2157.83,521.825C2133.71,520.141 2109.97,515.259 2085.99,512.318C2033.73,505.905 1980.04,501.308 1927.37,503.874C1905.98,504.916 1882.51,506.111 1861.93,512.449C1841.23,518.826 1811.67,533.374 1793.17,543.977C1743.86,572.244 1721.29,591.668 1690.51,641.901C1662.29,687.966 1692.87,739.324 1746.95,737.46C1764.16,736.867 1802.29,722.123 1823.11,717.712C1820.48,705.294 1810.13,669.769 1811.24,661.499C1814.96,633.837 1872.28,621.111 1892.67,614.629C1900.98,611.986 1909.36,609.568 1917.78,607.291C1928.28,604.45 1938.78,601.562 1949.34,598.927C1962.89,595.546 1976.63,592.814 1990.08,589.031C2014.98,582.029 2039.4,573.495 2064.63,567.646C2104.08,558.501 2115.44,554.675 2125.96,593.637Z"/>
                </clipPath>
                <g clip-path="url(#_clip2)">
                    <path d="M1817.88,646.749C1807.76,646.749 1790.13,651.132 1780.47,653.57C1772.01,655.708 1763.55,657.861 1755.16,660.302C1720.95,670.26 1719.63,674.368 1702.88,701.073C1697.88,709.061 1691.59,721.943 1699.66,730.362C1706.06,737.028 1721.05,746.956 1727.64,744.118C1741.28,738.244 1781.2,733.672 1795.85,729.954C1814.86,725.131 1822.12,727.428 1837.41,713.889" style="fill:rgb(146,134,115);"/>
                </g>
                <path d="M2123.06,594.419C2123.48,595.963 2125.03,596.908 2126.6,596.569C2136.73,594.369 2142.74,593.061 2152.43,589.339C2160.27,586.33 2168.03,583.12 2175.78,579.907C2181.91,577.369 2187.99,574.725 2194.02,571.966C2198.95,569.708 2203.91,567.507 2208.89,565.359C2216.64,562.019 2239.04,557.099 2250.63,549.267C2255.26,546.137 2258.25,542.455 2258.86,538.465C2259.48,534.425 2257.83,529.743 2252.08,524.7C2250.5,523.314 2247.27,522.193 2243.27,521.571C2235.37,520.342 2224.21,520.549 2220.53,520.759C2199.02,521.985 2179.57,520.335 2158.04,518.832C2133.97,517.152 2110.28,512.275 2086.36,509.34C2033.93,502.906 1980.06,498.303 1927.23,500.878C1905.59,501.932 1881.86,503.172 1861.05,509.582C1840.16,516.015 1810.34,530.679 1791.68,541.374C1741.85,569.938 1719.05,589.575 1687.95,640.334C1673.18,664.45 1673.89,689.955 1685.28,709.183C1696.66,728.396 1718.76,741.433 1747.05,740.459C1764.38,739.861 1802.78,725.087 1823.73,720.647C1825.35,720.304 1826.39,718.712 1826.05,717.092C1824.21,708.405 1818.59,688.404 1815.76,674.35C1814.64,668.762 1813.91,664.198 1814.22,661.898C1815.59,651.665 1825.17,643.893 1837.05,637.565C1856.14,627.395 1881.45,621.342 1893.57,617.488C1901.85,614.858 1910.18,612.453 1918.56,610.187C1929.05,607.352 1939.53,604.468 1950.07,601.838C1963.65,598.449 1977.41,595.71 1990.89,591.919C2015.74,584.93 2040.12,576.407 2065.3,570.569C2076.99,567.86 2086.17,565.612 2093.59,564.848C2100.25,564.161 2105.35,564.641 2109.49,567.493C2115.31,571.511 2119.12,579.824 2123.06,594.419ZM2128.09,590.104C2123.82,575.254 2119.14,566.858 2112.89,562.553C2108.67,559.641 2103.7,558.462 2097.53,558.586C2089.18,558.755 2078.41,561.37 2063.95,564.724C2038.67,570.583 2014.21,579.129 1989.27,586.143C1975.85,589.918 1962.14,592.642 1948.61,596.017C1938.04,598.656 1927.52,601.549 1916.99,604.395C1908.53,606.684 1900.11,609.113 1891.76,611.77C1879.41,615.694 1853.67,621.915 1834.23,632.27C1820.41,639.626 1809.87,649.202 1808.27,661.099C1807.91,663.761 1808.58,669.065 1809.88,675.533C1812.43,688.218 1817.25,705.742 1819.53,715.446C1798.37,720.484 1763.16,733.9 1746.84,734.462C1721.05,735.351 1700.82,723.641 1690.45,706.125C1680.08,688.624 1679.62,665.418 1693.07,643.469C1723.52,593.762 1745.87,574.551 1794.67,546.58C1813,536.07 1842.29,521.637 1862.81,515.316C1883.15,509.05 1906.37,507.901 1927.52,506.87C1980.02,504.312 2033.54,508.903 2085.63,515.295C2109.65,518.244 2133.45,523.13 2157.62,524.818C2179.41,526.339 2199.1,527.99 2220.87,526.749C2224.35,526.551 2234.89,526.339 2242.35,527.499C2244.93,527.901 2247.11,528.318 2248.12,529.211C2251.73,532.376 2253.32,535.022 2252.93,537.558C2252.54,540.143 2250.27,542.268 2247.27,544.296C2235.97,551.933 2214.07,556.592 2206.51,559.849C2201.49,562.014 2196.5,564.234 2191.52,566.51C2185.56,569.239 2179.54,571.854 2173.49,574.363C2165.78,577.556 2158.07,580.747 2150.28,583.738C2141.84,586.981 2136.28,588.314 2128.09,590.104L2128.09,590.104Z"/>
                <path d="M1987.85,371.932C1987.84,371.849 1987.81,371.757 1987.91,371.695C1987.92,371.686 1987.92,371.648 1987.92,371.613C1987.94,371.6 1987.95,371.585 1987.94,371.566C1987.93,371.536 1987.93,371.572 1987.92,371.613C1987.87,371.651 1987.73,371.68 1987.62,371.738C1986.73,372.233 1984.75,373.025 1982.54,374.625C1980.96,375.78 1979.35,377.406 1977.81,379.259C1975.17,382.422 1972.91,386.48 1972.18,391.399C1971.3,397.285 1969.92,402.937 1967.98,408.299C1963.27,421.254 1955.55,432.522 1946.41,442.467C1933.21,456.841 1916.68,468.302 1899.66,476.652C1887.25,482.783 1873.05,487.714 1861.21,495.358C1852.92,500.716 1845.78,507.389 1841.08,516.587C1840.48,517.765 1840.95,519.21 1842.13,519.812C1843.31,520.414 1844.75,519.946 1845.35,518.768C1849.65,510.353 1856.23,504.293 1863.82,499.39C1875.5,491.841 1889.53,486.993 1901.78,480.933C1919.25,472.231 1936.39,460.489 1949.7,445.429C1958.96,434.947 1966.19,422.815 1970.88,409.331C1972.82,403.759 1974.38,397.962 1975.32,391.88C1975.85,388.531 1977.23,385.673 1978.89,383.261C1980.71,380.622 1982.98,378.623 1984.78,376.935C1986.63,375.199 1988.04,373.856 1988.7,373.179C1989.26,372.616 1989.42,372.19 1989.39,372.045C1989.39,371.618 1989.04,371.27 1988.61,371.27C1988.22,371.27 1987.9,371.558 1987.85,371.932Z"/>
            </g>
            <g id="Eyebrows">
                <path d="M2111.12,609.566C2111.33,608.63 2112.89,607.287 2113.47,606.563C2115.6,603.921 2117.16,601.481 2120.16,599.71C2120.96,599.24 2123.34,597.753 2124.19,598.709C2125.23,599.889 2123.7,602.161 2123.1,603.114C2121.33,605.899 2117.67,613.243 2114.12,614.113C2112.55,614.498 2110.16,612.122 2110.43,610.523C2110.63,609.267 2111.83,608.352 2112.71,607.537" style="fill:rgb(44,44,44);"/>
                <path d="M2111.76,608.128C2111.46,608.409 2111.17,608.707 2110.92,609.029C2110.58,609.467 2110.32,609.95 2110.23,610.49C2110.09,611.338 2110.63,612.399 2111.43,613.193C2112.25,613.998 2113.32,614.514 2114.17,614.307C2115.36,614.015 2116.57,613.022 2117.71,611.706C2120.02,609.057 2122.07,605.102 2123.27,603.221C2123.63,602.648 2124.32,601.604 2124.61,600.599C2124.82,599.844 2124.81,599.11 2124.34,598.577C2124.01,598.211 2123.5,598.133 2122.92,598.241C2121.88,598.434 2120.6,599.216 2120.06,599.537C2118.86,600.249 2117.88,601.067 2117.01,601.961C2115.69,603.311 2114.61,604.837 2113.31,606.437C2112.97,606.859 2112.3,607.489 2111.76,608.128ZM2110.95,609.679C2110.79,609.951 2110.68,610.242 2110.62,610.556C2110.5,611.299 2111.01,612.213 2111.71,612.908C2112.42,613.608 2113.34,614.099 2114.07,613.919C2115.2,613.643 2116.33,612.688 2117.41,611.444C2119.7,608.81 2121.74,604.877 2122.93,603.007C2123.28,602.456 2123.95,601.455 2124.22,600.489C2124.4,599.875 2124.42,599.275 2124.04,598.842C2123.72,598.489 2123.17,598.555 2122.59,598.735C2121.68,599.014 2120.71,599.615 2120.26,599.882C2119.09,600.574 2118.14,601.37 2117.29,602.241C2115.98,603.582 2114.91,605.098 2113.63,606.688C2113.45,606.905 2113.19,607.178 2112.9,607.478C2112.92,607.549 2112.9,607.63 2112.85,607.684C2112.6,607.913 2112.32,608.15 2112.06,608.4C2111.98,608.494 2111.9,608.589 2111.83,608.683C2111.58,609.011 2111.38,609.328 2111.32,609.609C2111.29,609.717 2111.18,609.785 2111.08,609.761C2111.03,609.75 2110.98,609.719 2110.95,609.679Z"/>
                <path d="M2013.64,626.199C2014.07,626.199 2023.59,626.002 2024.36,626.184C2027.48,626.924 2030.87,626.612 2033.87,625.542C2043.74,622.023 2050.85,614.721 2061.58,612.695C2066.98,611.675 2071.36,611.698 2076.33,613.535C2077.74,614.057 2079.87,615.453 2081.39,615.453L2098.88,617.21C2100.26,616.128 2093.14,606.514 2085.75,603.981C2081.13,602.396 2072.95,598.572 2068.06,597.708C2065.6,597.274 2063.08,597.116 2060.59,597.259C2047.77,597.996 2037.12,608.209 2028.49,616.052C2024.5,619.681 2018.15,623.297 2013.64,626.199Z" style="fill:rgb(44,44,44);"/>
                <path d="M2013.21,625.941C2012.91,626.014 2012.78,626.155 2012.88,626.286C2012.98,626.417 2013.29,626.507 2013.64,626.507C2013.92,626.509 2018.08,626.458 2021.14,626.478C2022.73,626.488 2024.01,626.511 2024.26,626.575C2025.86,626.972 2027.53,627.097 2029.19,626.994C2030.85,626.89 2032.5,626.554 2034.04,626.023C2038.26,624.581 2041.99,622.467 2045.7,620.337C2048.16,618.923 2050.61,617.506 2053.2,616.289C2055.84,615.046 2058.62,614.006 2061.72,613.424C2064.32,612.934 2066.68,612.69 2068.99,612.787C2071.34,612.885 2073.63,613.338 2076.07,614.241C2077.03,614.598 2078.33,615.363 2079.54,615.813C2080.18,616.05 2080.8,616.202 2081.36,616.209C2081.35,616.208 2098.8,617.97 2098.8,617.97C2099,617.99 2099.2,617.933 2099.35,617.81C2099.69,617.544 2099.91,617.057 2099.77,616.342C2099.54,615.091 2098.03,612.64 2095.75,610.163C2093.17,607.357 2089.62,604.491 2086,603.251C2082.84,602.167 2078.03,600.037 2073.73,598.521C2071.7,597.802 2069.78,597.221 2068.19,596.94C2066.94,596.718 2065.66,596.566 2064.38,596.488C2063.11,596.41 2061.82,596.406 2060.55,596.479C2055.31,596.778 2050.43,598.612 2045.89,601.227C2039.15,605.108 2033.18,610.715 2027.96,615.465C2026.36,616.91 2024.39,618.351 2022.32,619.747C2019.22,621.828 2015.89,623.804 2013.21,625.527L2013.21,625.941ZM2098.18,616.372L2081.47,614.701C2081.45,614.698 2081.42,614.697 2081.39,614.697C2080.99,614.697 2080.54,614.571 2080.07,614.397C2078.86,613.949 2077.56,613.185 2076.59,612.829C2073.99,611.872 2071.55,611.395 2069.05,611.293C2066.64,611.195 2064.17,611.449 2061.44,611.966C2058.22,612.576 2055.31,613.643 2052.57,614.959C2049.95,616.214 2047.48,617.689 2045.02,619.173C2041.41,621.34 2037.81,623.537 2033.7,625.06C2032.25,625.599 2030.69,625.956 2029.12,626.089C2027.56,626.223 2025.97,626.136 2024.45,625.793C2024.17,625.73 2022.82,625.717 2021.14,625.736C2019.37,625.757 2017.24,625.805 2015.7,625.842L2015.7,625.842C2018.04,624.371 2020.7,622.753 2023.21,621.067C2025.35,619.625 2027.38,618.133 2029.02,616.639C2034.17,611.956 2040.04,606.417 2046.67,602.59C2051,600.094 2055.65,598.328 2060.64,598.04C2061.85,597.97 2063.07,597.973 2064.29,598.046C2065.51,598.12 2066.72,598.264 2067.92,598.475C2069.44,598.742 2071.27,599.301 2073.22,599.987C2077.52,601.501 2082.34,603.628 2085.5,604.711C2088.3,605.67 2091.06,607.691 2093.3,609.844C2095.49,611.955 2097.19,614.196 2097.94,615.722C2098.04,615.932 2098.12,616.173 2098.18,616.372Z"/>
            </g>
            <g transform="matrix(1,0,0,1,-0.51652,-0.912552)">
                <g id="Lips">
                    <path d="M2086.25,765.202L2088.8,766.232L2096.35,768.351C2100.55,769.285 2104.82,770.25 2108.93,771.623C2111.55,772.496 2114.09,773.552 2116.52,774.863C2118.47,775.87 2120.87,775.103 2121.88,773.15C2122.89,771.198 2122.12,768.795 2120.17,767.788C2117.29,766.375 2114.29,765.267 2111.22,764.361C2106.81,763.064 2102.27,762.16 2097.8,761.315L2096.67,761.018L2100.2,759.56L2108.18,756.68C2109.89,756.206 2111.6,755.811 2113.32,755.46C2115.97,754.92 2118.64,754.497 2121.33,754.092C2123.49,753.727 2124.96,751.672 2124.59,749.505C2124.23,747.339 2122.17,745.876 2120.01,746.241C2117.2,746.764 2114.42,747.309 2111.66,747.97C2109.78,748.421 2107.92,748.92 2106.06,749.504L2097.45,752.862L2085.16,758.166C2083.68,758.769 2083.25,759.771 2083.05,760.413C2082.73,761.443 2082.78,762.534 2083.57,763.597C2083.82,763.932 2084.24,764.404 2084.97,764.753C2085.25,764.889 2086.11,765.62 2086.25,765.202Z" style="fill:rgb(205,155,138);"/>
                </g>
            </g>
            <g id="Curves">
                <path d="M1943.14,935.303C1943.14,926.248 1941.99,917.319 1940.32,908.459C1937.82,895.243 1934.14,882.181 1931.35,869.08C1929.81,861.878 1928.59,854.666 1927.52,847.441C1925.92,836.566 1924.67,825.66 1923.25,814.706C1923.21,814.377 1922.91,814.145 1922.58,814.188C1922.25,814.23 1922.02,814.531 1922.06,814.86C1923.48,825.821 1924.73,836.734 1926.33,847.616C1927.4,854.866 1928.63,862.103 1930.17,869.33C1932.96,882.422 1936.64,895.475 1939.13,908.683C1940.8,917.469 1941.94,926.323 1941.94,935.303C1941.94,935.634 1942.2,935.903 1942.54,935.903C1942.87,935.903 1943.14,935.634 1943.14,935.303Z"/>
                <path d="M1901.36,899.633C1901.08,894.757 1900.77,889.891 1900.28,885.044C1900.06,882.965 1899.8,880.892 1899.52,878.822C1898.78,873.301 1897.86,867.813 1896.99,862.315C1893.55,840.328 1889.7,818.439 1887.41,796.354C1885.88,781.645 1885.13,766.841 1885.71,751.853C1885.72,751.522 1885.47,751.242 1885.14,751.229C1884.81,751.215 1884.53,751.473 1884.51,751.804C1883.88,766.85 1884.65,781.709 1886.08,796.487C1888.22,818.609 1892.01,840.53 1894.95,862.612C1895.68,868.111 1896.26,873.63 1896.89,879.148C1897.12,881.214 1897.35,883.28 1897.6,885.345C1898.19,890.156 1898.84,894.961 1899.34,899.795C1899.39,900.35 1899.87,900.766 1900.43,900.721C1900.99,900.677 1901.4,900.189 1901.36,899.633Z"/>
                <path d="M1820.11,717.712C1820.11,723.205 1821.86,729.306 1824.3,735.441C1827.73,744.037 1832.52,752.726 1835.03,759.772C1841.51,777.967 1843.54,786.263 1836.97,804.135C1836.4,805.689 1837.2,807.414 1838.75,807.986C1840.3,808.557 1842.03,807.759 1842.6,806.205C1849.78,786.691 1847.76,777.626 1840.68,757.759C1838.56,751.804 1834.85,744.688 1831.65,737.438C1828.67,730.666 1826.11,723.787 1826.11,717.712C1826.11,716.057 1824.77,714.712 1823.11,714.712C1821.45,714.712 1820.11,716.057 1820.11,717.712Z"/>
                <path d="M1981.06,841.434L1981.05,841.429C1976.51,839.612 1974.69,839.495 1974.8,840.149C1974.32,840.519 1975.54,841.568 1979.46,843.197C1979.68,843.293 1979.91,843.387 1980.15,843.481C1980.82,843.747 1983.19,844.655 1984.19,844.862L1992.47,846.132C1997.26,846.75 2002.05,847.408 2006.84,847.95C2010.06,848.312 2013.27,848.622 2016.5,848.831C2028.28,849.597 2041.55,849.336 2055.57,847.663C2067.91,846.191 2080.83,843.627 2093.83,839.708C2100.95,837.561 2107.17,832.223 2110.96,825.376C2114.57,818.865 2115.99,810.998 2113.95,803.247C2113.33,800.894 2110.43,795.598 2108.66,791.38C2107.83,789.391 2107.16,787.719 2107.43,786.873C2108.28,784.187 2110.91,782.555 2113.62,780.968C2116.67,779.181 2119.87,777.48 2121.61,775.006C2122.63,773.555 2123.19,771.853 2123.01,769.743C2122.57,764.498 2118.61,761.493 2113.01,760.058C2103.04,757.507 2087.81,759.956 2081.07,761.688C2080.47,761.842 2080.11,762.453 2080.26,763.052C2080.42,763.65 2081.03,764.012 2081.63,763.858C2087.22,762.419 2098.87,760.443 2108.15,761.47C2114.81,762.207 2120.32,764.377 2120.78,769.93C2120.98,772.265 2119.91,773.905 2118.34,775.27C2114.16,778.9 2106.96,780.976 2105.29,786.192C2105.01,787.065 2105.24,788.615 2105.91,790.479C2107.44,794.776 2111.08,801.178 2111.78,803.818C2113.67,810.99 2112.34,818.266 2109.01,824.291C2105.5,830.62 2099.77,835.578 2093.18,837.564C2080.31,841.443 2067.52,843.982 2055.3,845.439C2041.43,847.094 2028.3,847.353 2016.64,846.596C2013.45,846.389 2010.27,846.082 2007.09,845.724C2002.31,845.184 1997.54,844.527 1992.76,843.911L1984.64,842.668C1983.77,842.488 1981.77,841.715 1981.06,841.434Z"/>
                <path d="M2081.26,764.215C2084.02,762.409 2085.12,761.804 2085.8,761.626C2086.81,761.366 2086.98,761.874 2089.55,760.989C2097.09,758.387 2106.15,759.847 2114.12,758.374C2116.28,757.973 2118.37,757.366 2120.33,756.433C2124.47,754.466 2125.79,751.328 2125.81,747.643C2125.84,743.501 2124.06,738.595 2123.12,734.045C2122.48,731.01 2122.2,728.146 2123.38,725.863C2125.49,721.778 2129.71,720.188 2134.2,718.996C2139.03,717.714 2144.2,716.905 2147.94,714.615C2150.15,713.258 2151.89,711.406 2152.85,708.712C2155.15,702.262 2154.21,696.017 2151.6,690.153C2147.89,681.824 2140.76,674.271 2135.1,668.05C2129.96,662.398 2125.52,656.429 2122.25,649.941C2118.98,643.466 2116.88,636.473 2116.4,628.765C2116.15,624.719 2115.68,620.574 2116.32,616.699C2116.72,614.234 2117.59,611.882 2119.31,609.753C2119.7,609.273 2119.62,608.567 2119.14,608.178C2118.66,607.79 2117.96,607.865 2117.57,608.345C2115.59,610.796 2114.57,613.497 2114.11,616.334C2113.44,620.371 2113.91,624.688 2114.17,628.902C2114.66,636.928 2116.85,644.209 2120.25,650.95C2123.61,657.615 2128.16,663.751 2133.44,669.557C2138.96,675.618 2145.94,682.95 2149.55,691.065C2151.93,696.404 2152.83,702.087 2150.74,707.959C2149.96,710.13 2148.55,711.612 2146.76,712.705C2143.2,714.893 2138.24,715.606 2133.62,716.831C2128.5,718.191 2123.8,720.174 2121.39,724.834C2119.99,727.533 2120.18,730.913 2120.92,734.501C2121.84,738.898 2123.59,743.629 2123.57,747.63C2123.56,750.468 2122.55,752.895 2119.37,754.41C2117.58,755.26 2115.68,755.807 2113.71,756.171C2105.64,757.664 2096.46,756.235 2088.82,758.871C2085.64,759.968 2086.12,758.938 2084.17,759.865C2083.36,760.251 2082.12,760.975 2080.04,762.34C2079.52,762.678 2079.37,763.373 2079.71,763.89C2080.05,764.407 2080.74,764.553 2081.26,764.215Z"/>
                <path d="M2123.57,594.083C2123.57,597.777 2123.78,600.372 2123.1,602.593C2122.45,604.684 2120.96,606.383 2117.76,608.452C2117.24,608.787 2117.09,609.48 2117.42,610C2117.76,610.519 2118.45,610.669 2118.97,610.334C2122.8,607.866 2124.47,605.745 2125.24,603.25C2125.97,600.856 2125.81,598.063 2125.81,594.083C2125.81,593.465 2125.31,592.963 2124.69,592.963C2124.07,592.963 2123.57,593.465 2123.57,594.083Z"/>
                <g transform="matrix(1,0,0,1,0,-1)">
                    <path d="M2100.41,691.358C2100.22,691.518 2100.05,691.626 2099.87,691.795C2099.68,691.973 2099.51,692.16 2099.34,692.356C2099.17,692.548 2099.02,692.754 2098.85,692.949C2096.93,695.21 2094.42,697.099 2092.37,699.311C2091.68,700.051 2091.05,700.834 2090.49,701.655C2087.58,706.013 2087.48,711.194 2089.54,715.221C2091.59,719.242 2095.77,722.122 2101.27,721.931C2103.26,721.851 2104.78,721.318 2106.03,720.501C2106.99,719.877 2107.81,719.098 2108.55,718.231C2110.05,716.497 2111.27,714.42 2113.36,712.918C2114.45,712.187 2115.64,711.573 2116.95,711.168C2119.83,710.275 2123.11,710.226 2126.26,710.766C2127.67,711.008 2129.03,711.431 2130.36,711.898C2132.39,712.616 2134.3,713.541 2135.89,714.755C2136.02,714.859 2136.15,714.977 2136.29,715.072C2136.89,715.477 2137.51,715.764 2138.06,716.193C2138.35,716.506 2138.83,716.533 2139.14,716.253C2139.45,715.972 2139.48,715.491 2139.2,715.178C2138.78,714.494 2138.36,713.832 2137.76,713.255C2137.62,713.118 2137.45,713.009 2137.3,712.891C2135.5,711.554 2133.35,710.471 2131.02,709.809C2129.55,709.395 2128.02,709.176 2126.48,709.048C2123.09,708.769 2119.67,709.164 2116.63,710.18C2115.24,710.644 2113.91,711.198 2112.73,711.951C2110.42,713.322 2108.91,715.32 2107.24,717.015C2106.55,717.707 2105.84,718.342 2105,718.836C2103.99,719.435 2102.78,719.811 2101.22,719.822C2096.7,719.879 2093.34,717.456 2091.68,714.139C2090,710.799 2090.03,706.545 2092.41,702.926C2092.99,702.024 2093.67,701.188 2094.39,700.365C2096.14,698.354 2098.11,696.467 2099.72,694.395C2100.03,694.003 2100.35,693.622 2100.6,693.199C2100.75,692.937 2100.9,692.679 2100.99,692.392C2101.06,692.179 2101.08,691.997 2101.12,691.777C2101.24,691.581 2101.17,691.328 2100.98,691.213C2100.78,691.097 2100.53,691.162 2100.41,691.358Z"/>
                </g>
                <path d="M1840.91,790.987C1840.66,791.201 1840.49,791.212 1840.31,791.493C1840.14,791.756 1840.14,792.093 1840.07,792.395C1838.87,796.9 1837.76,801.493 1837.1,806.164C1836.35,811.436 1836.21,816.769 1836.63,822.022C1837.93,836.401 1843.89,850.217 1852.3,862.605C1860.57,874.797 1871.2,885.599 1881.96,894.218C1885.68,897.19 1889.81,902.395 1893.7,906.331C1894.84,907.485 1895.96,908.538 1897.05,909.417C1898.08,910.251 1899.59,910.093 1900.42,909.064C1901.26,908.035 1901.1,906.523 1900.07,905.689C1896.37,902.691 1892.22,897.48 1888.32,893.556C1887.17,892.405 1886.04,891.357 1884.95,890.484C1874.53,882.163 1864.23,871.724 1856.19,859.952C1848.2,848.244 1842.44,835.215 1841.15,821.604C1840.85,818.637 1840.81,815.644 1840.9,812.644C1840.95,810.748 1841.07,808.85 1841.21,806.951C1841.53,802.455 1842.01,797.973 1842.68,793.565C1842.76,793.067 1842.99,792.573 1842.92,792.076C1842.87,791.738 1842.71,791.649 1842.57,791.341C1842.66,790.884 1842.37,790.434 1841.92,790.337C1841.46,790.239 1841.01,790.531 1840.91,790.987Z"/>
                <path d="M2029.67,850.626C2028.36,858.044 2026.05,864.735 2022.9,870.845C2019.61,877.222 2015.41,882.939 2010.68,888.281C2006.32,893.206 2001.42,897.722 1996.36,902.183C1976.17,919.959 1952.17,935.517 1936.97,957.628C1936.22,958.72 1936.5,960.213 1937.59,960.961C1938.68,961.709 1940.18,961.429 1940.92,960.337C1955.83,938.471 1979.95,923.58 1999.37,905.508C2004.44,900.787 2009.12,895.786 2013.33,890.503C2017.92,884.74 2021.87,878.582 2024.97,871.854C2027.92,865.445 2030.11,858.525 2031.19,850.867C2031.25,850.448 2030.97,850.054 2030.55,849.988C2030.13,849.921 2029.74,850.207 2029.67,850.626Z"/>
                <path d="M1808.74,941.673C1807.85,939.01 1807.29,935.991 1806.87,934.534C1803.5,922.926 1800.8,913.716 1800.86,901.445C1800.98,875.851 1802.26,863.566 1809.83,839.045C1812.02,831.935 1813.44,824.381 1817.32,817.938C1824.47,806.079 1835.9,798.477 1843.73,787.394C1844.69,786.042 1844.37,784.168 1843.02,783.212C1841.66,782.256 1839.79,782.578 1838.84,783.93C1830.91,795.132 1819.41,802.854 1812.18,814.841C1808.05,821.701 1806.43,829.705 1804.09,837.276C1796.32,862.482 1794.99,875.108 1794.86,901.417C1794.8,914.313 1797.57,924.006 1801.1,936.205C1801.67,938.147 1802.5,942.668 1803.92,945.829C1804.79,947.761 1805.94,949.244 1807.18,950.015C1807.91,950.474 1809.5,951.067 1811.06,949.504C1811.86,948.699 1814.44,943.757 1814.55,943.526C1817.39,937.548 1820.25,931.609 1821.52,925.06C1824.14,911.56 1832.33,899.79 1846.66,897.174C1852.01,896.197 1857.66,895.797 1863.08,896.026C1892.22,897.261 1897.61,910.828 1913.43,932.816C1919.89,941.797 1929.84,953.799 1932.67,964.858C1933.08,966.462 1934.71,967.431 1936.32,967.021C1937.92,966.61 1938.89,964.975 1938.48,963.371C1935.48,951.656 1925.14,938.826 1918.3,929.312C1901.17,905.49 1894.9,891.369 1863.33,890.032C1857.47,889.783 1851.36,890.216 1845.58,891.272C1828.68,894.359 1818.72,907.988 1815.63,923.919C1814.46,929.968 1811.76,935.43 1809.13,940.951L1808.74,941.673Z"/>
                <path d="M2053.28,964.659C2053.55,958.41 2055.05,952.42 2055.11,946.236C2055.14,942.687 2054.74,939.082 2053.49,935.346C2050.78,927.192 2043.57,919.846 2034.9,915.22C2026.2,910.575 2016.09,908.705 2007.79,911.222C2003.68,912.469 1999.58,914.656 1995.6,917.257C1990.03,920.907 1984.69,925.372 1979.91,928.983C1975.68,932.172 1971.07,935.444 1966.29,938.741C1955.36,946.291 1943.61,953.971 1933.85,961.081C1932.79,961.86 1932.55,963.36 1933.33,964.43C1934.11,965.499 1935.61,965.734 1936.68,964.956C1946.41,957.868 1958.12,950.213 1969.02,942.688C1973.85,939.35 1978.52,936.038 1982.8,932.812C1987.5,929.26 1992.74,924.861 1998.23,921.271C2001.81,918.931 2005.48,916.935 2009.18,915.814C2016.37,913.633 2025.11,915.432 2032.65,919.454C2040.19,923.478 2046.59,929.759 2048.96,936.857C2050.03,940.058 2050.36,943.151 2050.33,946.192C2050.26,954.229 2047.87,961.951 2048.65,970.295C2048.76,971.46 2049.31,972.039 2049.72,972.354C2050.33,972.811 2051.05,973.003 2051.9,972.793C2052.37,972.676 2053.18,972.228 2053.94,971.329C2054.69,970.446 2055.67,968.871 2056.38,968.268C2057.53,967.278 2058.62,966.213 2059.66,965.1C2061.17,963.482 2062.58,961.763 2063.96,960.038C2067.66,955.38 2072.26,950.427 2075.84,945.08C2078.42,941.223 2080.48,937.16 2081.41,932.876C2082.11,929.705 2082.37,926.471 2082.37,923.221C2082.37,918.527 2081.84,913.8 2081.36,909.193C2080.22,898.531 2077.82,889.94 2074.37,882.208C2069.47,871.227 2063.22,861.492 2054.73,850.66C2053.89,849.585 2052.93,848.631 2052,847.568C2051.7,847.099 2051.07,846.967 2050.6,847.273C2050.13,847.578 2050,848.207 2050.31,848.675C2050.91,849.96 2051.42,851.221 2052.08,852.42C2058.64,864.211 2065.75,873.098 2070.32,883.963C2073.44,891.379 2075.74,899.526 2076.73,909.667C2077.18,914.116 2077.7,918.681 2077.68,923.212C2077.67,926.126 2077.45,929.027 2076.82,931.869C2076,935.591 2074.16,939.1 2071.91,942.448C2068.4,947.682 2063.88,952.521 2060.24,957.08C2058.95,958.707 2057.62,960.33 2056.19,961.855C2055.27,962.838 2054.31,963.781 2053.29,964.656L2053.28,964.659Z"/>
            </g>
        </g>
    </g>
</svg>
